<?xml version="1.0" encoding="utf-8"?>
<!-- Generator: Adobe Illustrator 16.0.0, SVG Export Plug-In . SVG Version: 6.00 Build 0)  -->
<!DOCTYPE svg PUBLIC "-//W3C//DTD SVG 1.1//EN" "http://www.w3.org/Graphics/SVG/1.1/DTD/svg11.dtd">
<svg version="1.1" id="Capa_1" xmlns="http://www.w3.org/2000/svg" xmlns:xlink="http://www.w3.org/1999/xlink" x="0px" y="0px"
	 width="67.5px" height="50.531px" viewBox="0 0 67.5 50.531" enable-background="new 0 0 67.5 50.531" xml:space="preserve">
<g>
	<path fill="#040606" d="M63.597,40.164c-1.124-0.197-2.097-1.357-2.691-2.475c-0.58-1.092-1.827-1.846-3.046-1.718
		c-0.206-0.007-0.412,0.001-0.619,0.046c-5.689,1.225-11.545,2.016-17.521,2.337c-1.909,0.097-3.83,0.149-5.762,0.149
		c-8.1,0-16.011-0.862-23.625-2.502c-1.298-0.279-2.644,0.517-3.265,1.688c-0.595,1.117-1.667,2.277-2.793,2.475
		c0,0-2.781,0.68-2.781,2.725c0,0,0,0.636,0,1.419c0,0.782,1.225,1.728,2.504,2.079c7.856,2.162,16.128,3.478,24.598,3.868
		c0.001,0.007,0.002,0.015,0.003,0.021c1.709,0.077,3.421,0.13,5.138,0.13c3.893,0,7.752-0.201,11.56-0.59
		c6.359-0.638,12.589-1.795,18.525-3.43c1.278-0.352,2.552-1.297,2.552-2.08v-1.418C66.373,40.844,63.597,40.164,63.597,40.164z"/>
	<path fill="#040606" d="M10.398,32.131c6.628,1.425,13.479,2.249,20.492,2.415c1.047,0.031,2.098,0.051,3.153,0.051
		c7.936,0,15.674-0.847,23.131-2.45c1.272-0.274,2.377-1.539,2.028-2.716c-0.351-1.177-1.979-2.453-2.362-3.642
		c-0.38-1.188-0.145-3.299-0.354-4.582C54.889,11.355,43.228,9.213,37.38,8.761c-0.147-0.012-0.271-0.11-0.377-0.273
		c-0.099-0.152-0.122-0.341-0.064-0.513c0.058-0.171,0.19-0.307,0.361-0.369c1.921-0.688,3.222-2.018,3.222-3.547
		c0-2.234-2.716-4.044-6.143-4.044C34.258,0.016,33.556,0,33.318,0c-3.427,0-6.268,1.811-6.268,4.044
		c0,1.529,1.302,2.859,3.222,3.547c0.17,0.062,0.304,0.197,0.361,0.369c0.058,0.172,0.034,0.361-0.064,0.513
		c-0.106,0.163-0.229,0.261-0.377,0.273c-5.848,0.452-17.508,2.594-19.106,12.446c-0.208,1.283,0.026,3.395-0.354,4.582
		c-0.382,1.188-2.012,2.465-2.362,3.642C8.021,30.592,9.126,31.856,10.398,32.131z M52.698,25.27
		c-0.002,0.537-0.437,0.974-0.975,0.974s-0.977-0.436-0.977-0.974c0-3.912-1.64-6.876-4.881-8.811
		c-2.469-1.476-4.941-1.778-4.968-1.781c-0.534-0.062-0.916-0.545-0.855-1.079c0.063-0.533,0.55-0.915,1.081-0.855
		C41.24,12.757,52.698,14.216,52.698,25.27z"/>
</g>
</svg>
