<?xml version="1.0" encoding="iso-8859-1"?>
<!-- Generator: Adobe Illustrator 16.0.0, SVG Export Plug-In . SVG Version: 6.00 Build 0)  -->
<!DOCTYPE svg PUBLIC "-//W3C//DTD SVG 1.1//EN" "http://www.w3.org/Graphics/SVG/1.1/DTD/svg11.dtd">
<svg version="1.1" id="Layer_1" xmlns="http://www.w3.org/2000/svg" xmlns:xlink="http://www.w3.org/1999/xlink" x="0px" y="0px"
	 width="512px" height="512px" viewBox="0 0 512 512" style="enable-background:new 0 0 512 512;" xml:space="preserve">
<g>
	<polygon points="34.758,34.079 34.758,477.921 173.304,477.921 96.418,34.079 	"/>
	<path d="M456.968,176.489c-10.559-7.777-25.018-18.429-51.734-18.429c-26.716,0-41.176,10.651-51.734,18.429
		c-7.771,5.724-10.986,8.093-20.274,8.093c-9.285,0-12.5-2.369-20.269-8.092c-10.558-7.777-25.016-18.43-51.731-18.43
		c-26.714,0-41.173,10.651-51.73,18.429c-7.769,5.724-10.984,8.093-20.27,8.093c-9.284,0-12.5-2.369-20.268-8.092
		c-6.279-4.625-13.939-10.268-24.736-14.081l11.841,68.356c8.48,3.919,19.129,6.859,33.163,6.859
		c26.715,0,41.174-10.65,51.732-18.43c7.768-5.724,10.984-8.092,20.269-8.092c9.286,0,12.501,2.368,20.269,8.092
		c10.558,7.779,25.017,18.43,51.731,18.43c26.716,0,41.176-10.65,51.734-18.43c7.77-5.724,10.986-8.092,20.274-8.092
		c9.289,0,12.504,2.368,20.274,8.092c10.559,7.779,25.018,18.43,51.734,18.43v-53.043
		C467.954,184.582,464.737,182.213,456.968,176.489z"/>
	<path d="M405.233,273.427c-26.716,0-41.176,10.651-51.734,18.429c-7.771,5.725-10.986,8.094-20.274,8.094
		c-9.285,0-12.5-2.369-20.269-8.092c-10.558-7.778-25.016-18.431-51.731-18.431c-26.714,0-41.173,10.651-51.73,18.429
		c-7.769,5.725-10.984,8.094-20.27,8.094c-9.284,0-12.5-2.369-20.268-8.092c-0.854-0.629-1.737-1.279-2.648-1.939l10.789,62.277
		c3.742,0.51,7.77,0.797,12.127,0.797c26.715,0,41.174-10.65,51.732-18.43c7.768-5.724,10.984-8.093,20.269-8.093
		c9.286,0,12.501,2.369,20.269,8.093c10.558,7.779,25.017,18.43,51.731,18.43c26.716,0,41.176-10.65,51.734-18.43
		c7.77-5.724,10.986-8.093,20.274-8.093c9.289,0,12.504,2.369,20.274,8.093c10.559,7.779,25.018,18.43,51.734,18.43v-53.043
		c-9.289,0-12.505-2.369-20.274-8.094C446.409,284.078,431.95,273.427,405.233,273.427z"/>
	<path d="M405.233,391.448c-26.716,0-41.176,10.651-51.734,18.431c-7.771,5.724-10.986,8.092-20.274,8.092
		c-9.285,0-12.5-2.368-20.269-8.092c-10.558-7.777-25.016-18.431-51.731-18.431c-26.714,0-41.173,10.651-51.73,18.431
		c-7.769,5.724-10.984,8.092-20.27,8.092c-0.255,0-0.49-0.009-0.736-0.012l9.126,52.679c21.457-1.943,33.948-11.132,43.342-18.052
		c7.768-5.725,10.984-8.094,20.269-8.094c9.286,0,12.501,2.369,20.269,8.094c10.558,7.777,25.017,18.429,51.731,18.429
		c26.716,0,41.176-10.651,51.734-18.429c7.77-5.725,10.986-8.094,20.274-8.094c9.289,0,12.504,2.369,20.274,8.094
		c10.559,7.777,25.018,18.429,51.734,18.429v-53.044c-9.289,0-12.505-2.368-20.274-8.092
		C446.409,402.1,431.95,391.448,405.233,391.448z"/>
</g>
</svg>
